<mxfile host="app.diagrams.net" modified="2023-03-28T15:22:28.223Z" agent="Mozilla/5.0 (Windows NT 10.0; Win64; x64) AppleWebKit/537.36 (KHTML, like Gecko) Chrome/111.0.0.0 Safari/537.36" etag="4Ky7nUg3ClpEf0teEF1I" version="21.1.1" type="device">
  <diagram name="PÃ¡gina-1" id="DLt2xfHZv3ae38IK4opX">
    <mxGraphModel dx="1578" dy="821" grid="1" gridSize="10" guides="1" tooltips="1" connect="1" arrows="1" fold="1" page="1" pageScale="1" pageWidth="1600" pageHeight="900" math="0" shadow="0">
      <root>
        <mxCell id="0" />
        <mxCell id="1" parent="0" />
        <mxCell id="09ozyw0w6ckLJWenfvnc-422" value="bootcamp_banking_product" style="shape=hexagon;perimeter=hexagonPerimeter2;whiteSpace=wrap;html=1;fixedSize=1;fillColor=#dae8fc;strokeColor=#6c8ebf;" parent="1" vertex="1">
          <mxGeometry x="890" y="230" width="170" height="130" as="geometry" />
        </mxCell>
        <mxCell id="09ozyw0w6ckLJWenfvnc-425" value="bootcamp_bank_customer" style="shape=hexagon;perimeter=hexagonPerimeter2;whiteSpace=wrap;html=1;fixedSize=1;fillColor=#dae8fc;strokeColor=#6c8ebf;" parent="1" vertex="1">
          <mxGeometry x="1070" y="100" width="170" height="130" as="geometry" />
        </mxCell>
        <mxCell id="09ozyw0w6ckLJWenfvnc-426" value="bootcamp_bank_account" style="shape=hexagon;perimeter=hexagonPerimeter2;whiteSpace=wrap;html=1;fixedSize=1;fillColor=#dae8fc;strokeColor=#6c8ebf;" parent="1" vertex="1">
          <mxGeometry x="1070" y="360" width="170" height="130" as="geometry" />
        </mxCell>
        <mxCell id="09ozyw0w6ckLJWenfvnc-428" value="bootcamp_credit_card" style="shape=hexagon;perimeter=hexagonPerimeter2;whiteSpace=wrap;html=1;fixedSize=1;fillColor=#dae8fc;strokeColor=#6c8ebf;" parent="1" vertex="1">
          <mxGeometry x="890" y="490" width="170" height="130" as="geometry" />
        </mxCell>
        <mxCell id="09ozyw0w6ckLJWenfvnc-429" value="bootcamp_bank_movements" style="shape=hexagon;perimeter=hexagonPerimeter2;whiteSpace=wrap;html=1;fixedSize=1;fillColor=#dae8fc;strokeColor=#6c8ebf;" parent="1" vertex="1">
          <mxGeometry x="1070" y="620" width="170" height="130" as="geometry" />
        </mxCell>
        <mxCell id="09ozyw0w6ckLJWenfvnc-489" style="edgeStyle=orthogonalEdgeStyle;rounded=0;orthogonalLoop=1;jettySize=auto;html=1;entryX=0;entryY=0.5;entryDx=0;entryDy=0;" parent="1" source="09ozyw0w6ckLJWenfvnc-432" target="09ozyw0w6ckLJWenfvnc-433" edge="1">
          <mxGeometry relative="1" as="geometry" />
        </mxCell>
        <mxCell id="09ozyw0w6ckLJWenfvnc-432" value="Browser" style="rounded=0;whiteSpace=wrap;html=1;fillColor=#f5f5f5;fontColor=#333333;strokeColor=#666666;" parent="1" vertex="1">
          <mxGeometry x="430" y="465" width="90" height="40" as="geometry" />
        </mxCell>
        <mxCell id="09ozyw0w6ckLJWenfvnc-438" style="edgeStyle=orthogonalEdgeStyle;rounded=0;orthogonalLoop=1;jettySize=auto;html=1;exitX=1;exitY=0.5;exitDx=0;exitDy=0;" parent="1" source="09ozyw0w6ckLJWenfvnc-433" target="09ozyw0w6ckLJWenfvnc-422" edge="1">
          <mxGeometry relative="1" as="geometry">
            <mxPoint x="640" y="430" as="sourcePoint" />
            <Array as="points">
              <mxPoint x="770" y="425" />
              <mxPoint x="770" y="295" />
            </Array>
          </mxGeometry>
        </mxCell>
        <mxCell id="09ozyw0w6ckLJWenfvnc-439" style="edgeStyle=orthogonalEdgeStyle;rounded=0;orthogonalLoop=1;jettySize=auto;html=1;exitX=1;exitY=0.5;exitDx=0;exitDy=0;" parent="1" source="09ozyw0w6ckLJWenfvnc-433" target="09ozyw0w6ckLJWenfvnc-425" edge="1">
          <mxGeometry relative="1" as="geometry">
            <Array as="points">
              <mxPoint x="770" y="425" />
              <mxPoint x="770" y="160" />
            </Array>
          </mxGeometry>
        </mxCell>
        <mxCell id="09ozyw0w6ckLJWenfvnc-443" style="edgeStyle=orthogonalEdgeStyle;rounded=0;orthogonalLoop=1;jettySize=auto;html=1;entryX=0;entryY=0.5;entryDx=0;entryDy=0;" parent="1" source="09ozyw0w6ckLJWenfvnc-433" target="09ozyw0w6ckLJWenfvnc-429" edge="1">
          <mxGeometry relative="1" as="geometry">
            <mxPoint x="1040" y="691" as="targetPoint" />
            <Array as="points">
              <mxPoint x="770" y="425" />
              <mxPoint x="770" y="685" />
            </Array>
          </mxGeometry>
        </mxCell>
        <mxCell id="09ozyw0w6ckLJWenfvnc-433" value="" style="shape=hexagon;perimeter=hexagonPerimeter2;whiteSpace=wrap;html=1;fixedSize=1;fillColor=#dae8fc;strokeColor=#6c8ebf;shadow=1;" parent="1" vertex="1">
          <mxGeometry x="610" y="385" width="120" height="80" as="geometry" />
        </mxCell>
        <mxCell id="09ozyw0w6ckLJWenfvnc-440" style="edgeStyle=orthogonalEdgeStyle;rounded=0;orthogonalLoop=1;jettySize=auto;html=1;exitX=1;exitY=0.5;exitDx=0;exitDy=0;entryX=0;entryY=0.5;entryDx=0;entryDy=0;" parent="1" source="09ozyw0w6ckLJWenfvnc-433" target="09ozyw0w6ckLJWenfvnc-426" edge="1">
          <mxGeometry relative="1" as="geometry">
            <mxPoint x="1050" y="430" as="targetPoint" />
            <Array as="points" />
          </mxGeometry>
        </mxCell>
        <mxCell id="09ozyw0w6ckLJWenfvnc-441" style="edgeStyle=orthogonalEdgeStyle;rounded=0;orthogonalLoop=1;jettySize=auto;html=1;entryX=0;entryY=0.5;entryDx=0;entryDy=0;exitX=1;exitY=0.5;exitDx=0;exitDy=0;" parent="1" source="09ozyw0w6ckLJWenfvnc-433" target="09ozyw0w6ckLJWenfvnc-428" edge="1">
          <mxGeometry relative="1" as="geometry">
            <mxPoint x="635" y="430" as="sourcePoint" />
            <mxPoint x="890" y="560" as="targetPoint" />
            <Array as="points">
              <mxPoint x="770" y="425" />
              <mxPoint x="770" y="555" />
            </Array>
          </mxGeometry>
        </mxCell>
        <mxCell id="09ozyw0w6ckLJWenfvnc-434" value="service-ApiGateWay" style="text;html=1;strokeColor=none;fillColor=none;align=center;verticalAlign=middle;whiteSpace=wrap;rounded=0;shadow=1;" parent="1" vertex="1">
          <mxGeometry x="620" y="405" width="90" height="30" as="geometry" />
        </mxCell>
        <mxCell id="09ozyw0w6ckLJWenfvnc-445" style="edgeStyle=orthogonalEdgeStyle;rounded=0;orthogonalLoop=1;jettySize=auto;html=1;entryX=1;entryY=0.5;entryDx=0;entryDy=0;" parent="1" source="09ozyw0w6ckLJWenfvnc-446" target="09ozyw0w6ckLJWenfvnc-425" edge="1">
          <mxGeometry relative="1" as="geometry">
            <mxPoint x="1260" y="160" as="targetPoint" />
            <Array as="points">
              <mxPoint x="1270" y="165" />
              <mxPoint x="1270" y="165" />
            </Array>
          </mxGeometry>
        </mxCell>
        <mxCell id="09ozyw0w6ckLJWenfvnc-446" value="DB" style="shape=cylinder3;whiteSpace=wrap;html=1;boundedLbl=1;backgroundOutline=1;size=15;fillColor=#d5e8d4;strokeColor=#82b366;" parent="1" vertex="1">
          <mxGeometry x="1370" y="125" width="60" height="80" as="geometry" />
        </mxCell>
        <mxCell id="09ozyw0w6ckLJWenfvnc-447" value="" style="shape=image;verticalLabelPosition=bottom;labelBackgroundColor=default;verticalAlign=top;aspect=fixed;imageAspect=0;image=data:image/png,iVBORw0KGgoAAAANSUhEUgAAAJUAAAFTCAMAAAAHur5gAAAA21BMVEX39/dYqlBJnUqmo4X//P/7+fv8+vxEm0VInUlOoUxIpD5SqElDm0RVqU3//f9OpkWqo4ignXw2ljc8mD1Upk5GpDzz9fPa6Nk0ljWMwIeUxJDv8+/g6uC617iGvoHq8Ol2sXZhrlmeyZqGuYZqrGuszazI3Mirz6jF3cO00bXM3sx7uXVgp2FosWFXo1ifxqBus2h+tX+XpXuGoXBqqVzZ2M7JyLg2nC+Sv5O01LGWwZeXxpNbnlVnnlxzn2R4qGWJoHKdpH5yqGK3tJ3n5N+xr5bf3tbAvqvPzsGZ+iOoAAAKzUlEQVR4nO2di3bbNgyGbVqU1FhKbGu13Tqpk65N0jTLekvXy5a2a3d5/yea7PhCSiRFApDEcyY8wXcA8Ad47/U666yzzmqz5XHbBArjx4+DthnKxme/tY2gMH7+24uwbYiS8Y9HN/6FMPg8nFzxtimKFpyl0TPfnMWPD/oP5jPPnJUHsP8geu2Xs/jyoN9/wObHXjkreJmuqBKvnBV8zF3V/4l55Sw+W0GtqKLTw7ZhtsaXw3RDxbwZhnx6toZaU0XXfmQWX/wy7N9bTsUmXlTDYHaU9gUqlkzbRsqhTh72+zJV++oQPD3oF6jY5LzlGIZPjvolqpi1Ogx575UEtaFiyc8tipYw+DYWb7Amz1tLLb48S2Wora9yLT1vCYsv0yJUXp43Fk9mrWT8tsqoqfIgHreAxY8VUCJVnDWPpfSURMXipOmmRpVTRSoWJctGsfiir4SSqVgUNYm161wqqFgULxrEejVUQxWpWMSmTWEFL3VQ67ZPxrppCCt4dKSDKlOx5LoZqIsDLZSCiiXPGpCt4PKhHkpFxbLT2kviZorlQsWyn2vG4gulpJup2OTXerHCX4xQGio2f1Enlmn4majY/Kq+lL9fTIBQxZPaKjWfmYafkSqvPXWp6VRTkm2ocjWtJ4aGQrM3LVWuD3XMe6qTykxVy7zHIqkqqOoYiFzXUtlTsYS62woeVyiVDVVEnPH83Cp+FVQs+0Ca8VOr8FVS5VNqQm8FTyxEwYYqzujmF/zSRhRsqEhXTW09VU3FMqquJnhESEW18s2vLMefHVXEKKB6oZ1+2lLl8kAQw+DCTj+tqfLKg47heoeNliqO8a564hA/OyqWYGPIr5xctVuurYghchxWTWpAvmLRDarwhCcuqW5NhdVSe/28N7sI5o0poh4GTx1dZU2F2XJduKW6AxWbnEOdFTx2DWBpsU9rMQMmPF86FEBXKpYBpzwuvYI7VZwtQK46dneVAxVLQMtaEFe5UIEOZIBc5UQFUQeQq5yoAOXQsYMBUUXPXJ0VPIW4yo2KOZ+4m4Jc5UjlOg8LnfpiKJVr3eFubRWUys1Z/BLmKlcqt8wKXjXjKydnVeyLEFK5OAumoCAqB80CygKEyr4ahh+BuQ6himxbh8BlZQFLZTuxgOc6iCr51apXBrTrGCqW2EUQnFUwqszm0CRY16FUVkrquAqDp2ITi+7PfWqKpbKYV3DXBQ88VTypPPe6PqjeLJVFvqMCaNhMNVllvuMCCKSqLIa4AEKpqlZK4e0ChopFRl+hJBRBlRmnFfB+D0dlPn0e4lwFpoozg2RhmhgUFcsu9SEML3ABhFNFhrNj4BkXmooZqs4CsmZFQ5W90IUQqwsYKn0Iw8/ItEJQsbk2rRz3kkiptEIKW98jotL1fvi0wlDFidpXIWzVkYhKtxCCVisclWa6iuxisFSR8hI3uggiqdQrDoilGBoq5aQC21uhqZRNVlB9HrReqjhR+Iog2XFUqqk9v8KnFZIqe15yFidIdiSVom8IEYtpRFRxVooggbJjqRSJhZ3eUFCVEgu4TUlLVUoskiGIpSopFskQxFKx4k0GguaKgKo4WUUuEVFRFXosxDYJIVWpeadIKzRVYS2SRhjQVLG8fcJnXviKzZcSFX7WRUIl1xzoAQZqKlkaaOSKgOpClAbUnhIhVfJBoqLoYwio5PocnFFAEVDJU1WSZMdTxZEYQdymEh0VE5e4iaSdgEqc1lOsMawNTyXIKE0nSkGVCatYRAWHgkoQd+RmJSWVsDBDsUpERCVMvoiKMwGVuA5JVJwpqD55SSVsQZMsfdBQCfMJitVHIqrXPlKJrUxH1VH9f6jI9Mr6SpUVFZW246le10CFhZJUlKxnQPtKrDg0q6IkVMLkmawXhR03FKmE/oqf+0IlrowSLapRUAl9++o9al+ohAUsohk9AZV4MIUT6RWaSlqCpFlup6AS90xotiYoqMTrqlTlGUsl73pRlRw0lbTWR7X8gaWS10WpFrCwVIVz0kSChaUq7DyHJFB4KnnbkkgasFSFswNE3SiaSr5dT9RhoZVB3uElGoRIqtLvHtwHKnlzqUe1v4SkKh2io0l3JFXp+A5NzUFSzYun3Gm2cnBUcfnIaEAAhaRSnJDG3PwkolKcGCXRURyV6hAkRWIhqYpMPZoZBYpK+W8ThWKhqJRnySm2LlFUmfrcPZ4Ks1IUZyomigMgGCrNd2AE2oCAUh1DXht+SoHxle42Nr55R1BpH+rChxDhKv2V2Sn2UhyCSn83FT0K4VAaXViHENv6wamMF2ZbozLdTA2QVwjhVKp+YRdC5LQQDGW+8Yy82QimMt8OR0oWFEp3e5Am36FUVa8OoPIdfIKu6kUS2EN9SCr13UHJWYgSDX4JofLlD9cXdAmojE8ObJ0FF4eaXthYO8v+ZXQiKqunueATQ+DLLVb/98KVFDbxsnxM0OkdcjRVfGP34hvYWSAqqwewMM4CUZkfkxGdBRyGoLfCNNNAhQE1CzLxsnxXbe0smMADqBxcBa2G9boK2jrU7Crg4q0zVGw9ADc2BWiWu6tcfziGnHl3haru9krmrg7Oxdn57WHrv5YQVKY3k/TOck14Vyrgj+yOIXSkyj6BXpZ3LYduZTB2ElDB7P82AlBNLqGfYbiJVs1Pku8sdIqhC1WM+gnDJYYuroJ+orAx9UfASvvdvpOJrlE/jrn8u/SHNRX690b730zO7qypkPHrOXyS886aym5eajTbrd/03V1kGb+M4NO/0PjN7Z7qy1tLKppf7ILPNqmV3llSUf1xGdoc7Unffk1soKIboo/1+MJCS9Ovb2yoUKJewLLoANM332yo5uCiXLbgpHIgDr+NLaiyT5TfSFZ/uDkcDKqpErxSSRZWfS6bjkaVUDX8ul6xfHQ2GlWV5xo+L+ZL40/Y6bvRqKo81/HRs3mbLv0yGlWUnDr+4s1Ty/Sba3o3Gr01pjvxL647C070WOnbwcAoo5lxYxKFdaEN4vDNwCgNybMaPw9/qsPK5WowYtp0T67r+jp8jaVT03RFpR2E0U1dP4dvsDT/v5+NcipdLxMx6s+dS1hPVFjpnznVQFOfo7huKA1WLgyrECoj2ASUGmslDJrEqj98G6xybq2FYaDS0eSmGSjVSFwJw0ClWEnNo0/CKunWaKAMYXbdawxqpfJS8ck7hntfFWYU2WnYIFSxJuYdwz2VLO8Tin+T3bAuD/b91v0QLOR7PH9eT5dgsnB2tMMafhtssW62zoom5017amV8ebbt5dPRlmqn7wk7rq9LMGL1Xh7Jyb6P4eS0ycEnW/D5YF9vtlh3ySql2ojeDuvkYbpVdtFbszahcqxZfyim1RprvGgnpfaWJ9fBnzLV+LZtqNwOP3yVoAbfm5cphf0Yy64C/fxLbqHsqn+8cFUvfC+56kfbPBuTQ+iHqwohfO/BAFxb+I8QwL/bptnZ7T6EnozAlYmJ5UsAc9tD/eVLsueJ9X2vVv74SlAsb4ZgT0j38b8eUe3SfXzbNopg0x2VP3IlqLs3VXBlu0HoF9W25ngk7Stp2CTWuPoEfYN26yXV315S/fCSarGlahtEto7K2rbi7ldeHXpJFf7lJdX3jsrWtuXZq+q8p/Kpk+moHGxH5VPfnlON/Zvj5Hb7fTz2j6p3OF2B+TRL3djh9F/ffNVZZ5111llnnXXWWWedddaZyv4Dz9otpYbxNjEAAAAASUVORK5CYII=;" parent="1" vertex="1">
          <mxGeometry x="1340" y="100" width="23.73" height="54" as="geometry" />
        </mxCell>
        <mxCell id="09ozyw0w6ckLJWenfvnc-466" style="edgeStyle=orthogonalEdgeStyle;rounded=0;orthogonalLoop=1;jettySize=auto;html=1;entryX=1;entryY=0.5;entryDx=0;entryDy=0;" parent="1" source="09ozyw0w6ckLJWenfvnc-467" target="09ozyw0w6ckLJWenfvnc-422" edge="1">
          <mxGeometry relative="1" as="geometry">
            <mxPoint x="1070" y="290" as="targetPoint" />
            <Array as="points">
              <mxPoint x="1260" y="295" />
              <mxPoint x="1260" y="295" />
            </Array>
          </mxGeometry>
        </mxCell>
        <mxCell id="09ozyw0w6ckLJWenfvnc-467" value="DB" style="shape=cylinder3;whiteSpace=wrap;html=1;boundedLbl=1;backgroundOutline=1;size=15;fillColor=#d5e8d4;strokeColor=#82b366;" parent="1" vertex="1">
          <mxGeometry x="1370" y="250" width="60" height="80" as="geometry" />
        </mxCell>
        <mxCell id="09ozyw0w6ckLJWenfvnc-468" value="" style="shape=image;verticalLabelPosition=bottom;labelBackgroundColor=default;verticalAlign=top;aspect=fixed;imageAspect=0;image=data:image/png,iVBORw0KGgoAAAANSUhEUgAAAJUAAAFTCAMAAAAHur5gAAAA21BMVEX39/dYqlBJnUqmo4X//P/7+fv8+vxEm0VInUlOoUxIpD5SqElDm0RVqU3//f9OpkWqo4ignXw2ljc8mD1Upk5GpDzz9fPa6Nk0ljWMwIeUxJDv8+/g6uC617iGvoHq8Ol2sXZhrlmeyZqGuYZqrGuszazI3Mirz6jF3cO00bXM3sx7uXVgp2FosWFXo1ifxqBus2h+tX+XpXuGoXBqqVzZ2M7JyLg2nC+Sv5O01LGWwZeXxpNbnlVnnlxzn2R4qGWJoHKdpH5yqGK3tJ3n5N+xr5bf3tbAvqvPzsGZ+iOoAAAKzUlEQVR4nO2di3bbNgyGbVqU1FhKbGu13Tqpk65N0jTLekvXy5a2a3d5/yea7PhCSiRFApDEcyY8wXcA8Ad47/U666yzzmqz5XHbBArjx4+DthnKxme/tY2gMH7+24uwbYiS8Y9HN/6FMPg8nFzxtimKFpyl0TPfnMWPD/oP5jPPnJUHsP8geu2Xs/jyoN9/wObHXjkreJmuqBKvnBV8zF3V/4l55Sw+W0GtqKLTw7ZhtsaXw3RDxbwZhnx6toZaU0XXfmQWX/wy7N9bTsUmXlTDYHaU9gUqlkzbRsqhTh72+zJV++oQPD3oF6jY5LzlGIZPjvolqpi1Ogx575UEtaFiyc8tipYw+DYWb7Amz1tLLb48S2Wora9yLT1vCYsv0yJUXp43Fk9mrWT8tsqoqfIgHreAxY8VUCJVnDWPpfSURMXipOmmRpVTRSoWJctGsfiir4SSqVgUNYm161wqqFgULxrEejVUQxWpWMSmTWEFL3VQ67ZPxrppCCt4dKSDKlOx5LoZqIsDLZSCiiXPGpCt4PKhHkpFxbLT2kviZorlQsWyn2vG4gulpJup2OTXerHCX4xQGio2f1Enlmn4majY/Kq+lL9fTIBQxZPaKjWfmYafkSqvPXWp6VRTkm2ocjWtJ4aGQrM3LVWuD3XMe6qTykxVy7zHIqkqqOoYiFzXUtlTsYS62woeVyiVDVVEnPH83Cp+FVQs+0Ca8VOr8FVS5VNqQm8FTyxEwYYqzujmF/zSRhRsqEhXTW09VU3FMqquJnhESEW18s2vLMefHVXEKKB6oZ1+2lLl8kAQw+DCTj+tqfLKg47heoeNliqO8a564hA/OyqWYGPIr5xctVuurYghchxWTWpAvmLRDarwhCcuqW5NhdVSe/28N7sI5o0poh4GTx1dZU2F2XJduKW6AxWbnEOdFTx2DWBpsU9rMQMmPF86FEBXKpYBpzwuvYI7VZwtQK46dneVAxVLQMtaEFe5UIEOZIBc5UQFUQeQq5yoAOXQsYMBUUXPXJ0VPIW4yo2KOZ+4m4Jc5UjlOg8LnfpiKJVr3eFubRWUys1Z/BLmKlcqt8wKXjXjKydnVeyLEFK5OAumoCAqB80CygKEyr4ahh+BuQ6himxbh8BlZQFLZTuxgOc6iCr51apXBrTrGCqW2EUQnFUwqszm0CRY16FUVkrquAqDp2ITi+7PfWqKpbKYV3DXBQ88VTypPPe6PqjeLJVFvqMCaNhMNVllvuMCCKSqLIa4AEKpqlZK4e0ChopFRl+hJBRBlRmnFfB+D0dlPn0e4lwFpoozg2RhmhgUFcsu9SEML3ABhFNFhrNj4BkXmooZqs4CsmZFQ5W90IUQqwsYKn0Iw8/ItEJQsbk2rRz3kkiptEIKW98jotL1fvi0wlDFidpXIWzVkYhKtxCCVisclWa6iuxisFSR8hI3uggiqdQrDoilGBoq5aQC21uhqZRNVlB9HrReqjhR+Iog2XFUqqk9v8KnFZIqe15yFidIdiSVom8IEYtpRFRxVooggbJjqRSJhZ3eUFCVEgu4TUlLVUoskiGIpSopFskQxFKx4k0GguaKgKo4WUUuEVFRFXosxDYJIVWpeadIKzRVYS2SRhjQVLG8fcJnXviKzZcSFX7WRUIl1xzoAQZqKlkaaOSKgOpClAbUnhIhVfJBoqLoYwio5PocnFFAEVDJU1WSZMdTxZEYQdymEh0VE5e4iaSdgEqc1lOsMawNTyXIKE0nSkGVCatYRAWHgkoQd+RmJSWVsDBDsUpERCVMvoiKMwGVuA5JVJwpqD55SSVsQZMsfdBQCfMJitVHIqrXPlKJrUxH1VH9f6jI9Mr6SpUVFZW246le10CFhZJUlKxnQPtKrDg0q6IkVMLkmawXhR03FKmE/oqf+0IlrowSLapRUAl9++o9al+ohAUsohk9AZV4MIUT6RWaSlqCpFlup6AS90xotiYoqMTrqlTlGUsl73pRlRw0lbTWR7X8gaWS10WpFrCwVIVz0kSChaUq7DyHJFB4KnnbkkgasFSFswNE3SiaSr5dT9RhoZVB3uElGoRIqtLvHtwHKnlzqUe1v4SkKh2io0l3JFXp+A5NzUFSzYun3Gm2cnBUcfnIaEAAhaRSnJDG3PwkolKcGCXRURyV6hAkRWIhqYpMPZoZBYpK+W8ThWKhqJRnySm2LlFUmfrcPZ4Ks1IUZyomigMgGCrNd2AE2oCAUh1DXht+SoHxle42Nr55R1BpH+rChxDhKv2V2Sn2UhyCSn83FT0K4VAaXViHENv6wamMF2ZbozLdTA2QVwjhVKp+YRdC5LQQDGW+8Yy82QimMt8OR0oWFEp3e5Am36FUVa8OoPIdfIKu6kUS2EN9SCr13UHJWYgSDX4JofLlD9cXdAmojE8ObJ0FF4eaXthYO8v+ZXQiKqunueATQ+DLLVb/98KVFDbxsnxM0OkdcjRVfGP34hvYWSAqqwewMM4CUZkfkxGdBRyGoLfCNNNAhQE1CzLxsnxXbe0smMADqBxcBa2G9boK2jrU7Crg4q0zVGw9ADc2BWiWu6tcfziGnHl3haru9krmrg7Oxdn57WHrv5YQVKY3k/TOck14Vyrgj+yOIXSkyj6BXpZ3LYduZTB2ElDB7P82AlBNLqGfYbiJVs1Pku8sdIqhC1WM+gnDJYYuroJ+orAx9UfASvvdvpOJrlE/jrn8u/SHNRX690b730zO7qypkPHrOXyS886aym5eajTbrd/03V1kGb+M4NO/0PjN7Z7qy1tLKppf7ILPNqmV3llSUf1xGdoc7Unffk1soKIboo/1+MJCS9Ovb2yoUKJewLLoANM332yo5uCiXLbgpHIgDr+NLaiyT5TfSFZ/uDkcDKqpErxSSRZWfS6bjkaVUDX8ul6xfHQ2GlWV5xo+L+ZL40/Y6bvRqKo81/HRs3mbLv0yGlWUnDr+4s1Ty/Sba3o3Gr01pjvxL647C070WOnbwcAoo5lxYxKFdaEN4vDNwCgNybMaPw9/qsPK5WowYtp0T67r+jp8jaVT03RFpR2E0U1dP4dvsDT/v5+NcipdLxMx6s+dS1hPVFjpnznVQFOfo7huKA1WLgyrECoj2ASUGmslDJrEqj98G6xybq2FYaDS0eSmGSjVSFwJw0ClWEnNo0/CKunWaKAMYXbdawxqpfJS8ck7hntfFWYU2WnYIFSxJuYdwz2VLO8Tin+T3bAuD/b91v0QLOR7PH9eT5dgsnB2tMMafhtssW62zoom5017amV8ebbt5dPRlmqn7wk7rq9LMGL1Xh7Jyb6P4eS0ycEnW/D5YF9vtlh3ySql2ojeDuvkYbpVdtFbszahcqxZfyim1RprvGgnpfaWJ9fBnzLV+LZtqNwOP3yVoAbfm5cphf0Yy64C/fxLbqHsqn+8cFUvfC+56kfbPBuTQ+iHqwohfO/BAFxb+I8QwL/bptnZ7T6EnozAlYmJ5UsAc9tD/eVLsueJ9X2vVv74SlAsb4ZgT0j38b8eUe3SfXzbNopg0x2VP3IlqLs3VXBlu0HoF9W25ngk7Stp2CTWuPoEfYN26yXV315S/fCSarGlahtEto7K2rbi7ldeHXpJFf7lJdX3jsrWtuXZq+q8p/Kpk+moHGxH5VPfnlON/Zvj5Hb7fTz2j6p3OF2B+TRL3djh9F/ffNVZZ5111llnnXXWWWedddaZyv4Dz9otpYbxNjEAAAAASUVORK5CYII=;" parent="1" vertex="1">
          <mxGeometry x="1340" y="220" width="23.73" height="54" as="geometry" />
        </mxCell>
        <mxCell id="09ozyw0w6ckLJWenfvnc-469" style="edgeStyle=orthogonalEdgeStyle;rounded=0;orthogonalLoop=1;jettySize=auto;html=1;entryX=1;entryY=0.5;entryDx=0;entryDy=0;" parent="1" source="09ozyw0w6ckLJWenfvnc-470" target="09ozyw0w6ckLJWenfvnc-426" edge="1">
          <mxGeometry relative="1" as="geometry">
            <mxPoint x="1240" y="420" as="targetPoint" />
            <Array as="points">
              <mxPoint x="1430" y="425" />
              <mxPoint x="1430" y="425" />
            </Array>
          </mxGeometry>
        </mxCell>
        <mxCell id="09ozyw0w6ckLJWenfvnc-470" value="DB" style="shape=cylinder3;whiteSpace=wrap;html=1;boundedLbl=1;backgroundOutline=1;size=15;fillColor=#d5e8d4;strokeColor=#82b366;" parent="1" vertex="1">
          <mxGeometry x="1370" y="365" width="60" height="80" as="geometry" />
        </mxCell>
        <mxCell id="09ozyw0w6ckLJWenfvnc-471" value="" style="shape=image;verticalLabelPosition=bottom;labelBackgroundColor=default;verticalAlign=top;aspect=fixed;imageAspect=0;image=data:image/png,iVBORw0KGgoAAAANSUhEUgAAAJUAAAFTCAMAAAAHur5gAAAA21BMVEX39/dYqlBJnUqmo4X//P/7+fv8+vxEm0VInUlOoUxIpD5SqElDm0RVqU3//f9OpkWqo4ignXw2ljc8mD1Upk5GpDzz9fPa6Nk0ljWMwIeUxJDv8+/g6uC617iGvoHq8Ol2sXZhrlmeyZqGuYZqrGuszazI3Mirz6jF3cO00bXM3sx7uXVgp2FosWFXo1ifxqBus2h+tX+XpXuGoXBqqVzZ2M7JyLg2nC+Sv5O01LGWwZeXxpNbnlVnnlxzn2R4qGWJoHKdpH5yqGK3tJ3n5N+xr5bf3tbAvqvPzsGZ+iOoAAAKzUlEQVR4nO2di3bbNgyGbVqU1FhKbGu13Tqpk65N0jTLekvXy5a2a3d5/yea7PhCSiRFApDEcyY8wXcA8Ad47/U666yzzmqz5XHbBArjx4+DthnKxme/tY2gMH7+24uwbYiS8Y9HN/6FMPg8nFzxtimKFpyl0TPfnMWPD/oP5jPPnJUHsP8geu2Xs/jyoN9/wObHXjkreJmuqBKvnBV8zF3V/4l55Sw+W0GtqKLTw7ZhtsaXw3RDxbwZhnx6toZaU0XXfmQWX/wy7N9bTsUmXlTDYHaU9gUqlkzbRsqhTh72+zJV++oQPD3oF6jY5LzlGIZPjvolqpi1Ogx575UEtaFiyc8tipYw+DYWb7Amz1tLLb48S2Wora9yLT1vCYsv0yJUXp43Fk9mrWT8tsqoqfIgHreAxY8VUCJVnDWPpfSURMXipOmmRpVTRSoWJctGsfiir4SSqVgUNYm161wqqFgULxrEejVUQxWpWMSmTWEFL3VQ67ZPxrppCCt4dKSDKlOx5LoZqIsDLZSCiiXPGpCt4PKhHkpFxbLT2kviZorlQsWyn2vG4gulpJup2OTXerHCX4xQGio2f1Enlmn4majY/Kq+lL9fTIBQxZPaKjWfmYafkSqvPXWp6VRTkm2ocjWtJ4aGQrM3LVWuD3XMe6qTykxVy7zHIqkqqOoYiFzXUtlTsYS62woeVyiVDVVEnPH83Cp+FVQs+0Ca8VOr8FVS5VNqQm8FTyxEwYYqzujmF/zSRhRsqEhXTW09VU3FMqquJnhESEW18s2vLMefHVXEKKB6oZ1+2lLl8kAQw+DCTj+tqfLKg47heoeNliqO8a564hA/OyqWYGPIr5xctVuurYghchxWTWpAvmLRDarwhCcuqW5NhdVSe/28N7sI5o0poh4GTx1dZU2F2XJduKW6AxWbnEOdFTx2DWBpsU9rMQMmPF86FEBXKpYBpzwuvYI7VZwtQK46dneVAxVLQMtaEFe5UIEOZIBc5UQFUQeQq5yoAOXQsYMBUUXPXJ0VPIW4yo2KOZ+4m4Jc5UjlOg8LnfpiKJVr3eFubRWUys1Z/BLmKlcqt8wKXjXjKydnVeyLEFK5OAumoCAqB80CygKEyr4ahh+BuQ6himxbh8BlZQFLZTuxgOc6iCr51apXBrTrGCqW2EUQnFUwqszm0CRY16FUVkrquAqDp2ITi+7PfWqKpbKYV3DXBQ88VTypPPe6PqjeLJVFvqMCaNhMNVllvuMCCKSqLIa4AEKpqlZK4e0ChopFRl+hJBRBlRmnFfB+D0dlPn0e4lwFpoozg2RhmhgUFcsu9SEML3ABhFNFhrNj4BkXmooZqs4CsmZFQ5W90IUQqwsYKn0Iw8/ItEJQsbk2rRz3kkiptEIKW98jotL1fvi0wlDFidpXIWzVkYhKtxCCVisclWa6iuxisFSR8hI3uggiqdQrDoilGBoq5aQC21uhqZRNVlB9HrReqjhR+Iog2XFUqqk9v8KnFZIqe15yFidIdiSVom8IEYtpRFRxVooggbJjqRSJhZ3eUFCVEgu4TUlLVUoskiGIpSopFskQxFKx4k0GguaKgKo4WUUuEVFRFXosxDYJIVWpeadIKzRVYS2SRhjQVLG8fcJnXviKzZcSFX7WRUIl1xzoAQZqKlkaaOSKgOpClAbUnhIhVfJBoqLoYwio5PocnFFAEVDJU1WSZMdTxZEYQdymEh0VE5e4iaSdgEqc1lOsMawNTyXIKE0nSkGVCatYRAWHgkoQd+RmJSWVsDBDsUpERCVMvoiKMwGVuA5JVJwpqD55SSVsQZMsfdBQCfMJitVHIqrXPlKJrUxH1VH9f6jI9Mr6SpUVFZW246le10CFhZJUlKxnQPtKrDg0q6IkVMLkmawXhR03FKmE/oqf+0IlrowSLapRUAl9++o9al+ohAUsohk9AZV4MIUT6RWaSlqCpFlup6AS90xotiYoqMTrqlTlGUsl73pRlRw0lbTWR7X8gaWS10WpFrCwVIVz0kSChaUq7DyHJFB4KnnbkkgasFSFswNE3SiaSr5dT9RhoZVB3uElGoRIqtLvHtwHKnlzqUe1v4SkKh2io0l3JFXp+A5NzUFSzYun3Gm2cnBUcfnIaEAAhaRSnJDG3PwkolKcGCXRURyV6hAkRWIhqYpMPZoZBYpK+W8ThWKhqJRnySm2LlFUmfrcPZ4Ks1IUZyomigMgGCrNd2AE2oCAUh1DXht+SoHxle42Nr55R1BpH+rChxDhKv2V2Sn2UhyCSn83FT0K4VAaXViHENv6wamMF2ZbozLdTA2QVwjhVKp+YRdC5LQQDGW+8Yy82QimMt8OR0oWFEp3e5Am36FUVa8OoPIdfIKu6kUS2EN9SCr13UHJWYgSDX4JofLlD9cXdAmojE8ObJ0FF4eaXthYO8v+ZXQiKqunueATQ+DLLVb/98KVFDbxsnxM0OkdcjRVfGP34hvYWSAqqwewMM4CUZkfkxGdBRyGoLfCNNNAhQE1CzLxsnxXbe0smMADqBxcBa2G9boK2jrU7Crg4q0zVGw9ADc2BWiWu6tcfziGnHl3haru9krmrg7Oxdn57WHrv5YQVKY3k/TOck14Vyrgj+yOIXSkyj6BXpZ3LYduZTB2ElDB7P82AlBNLqGfYbiJVs1Pku8sdIqhC1WM+gnDJYYuroJ+orAx9UfASvvdvpOJrlE/jrn8u/SHNRX690b730zO7qypkPHrOXyS886aym5eajTbrd/03V1kGb+M4NO/0PjN7Z7qy1tLKppf7ILPNqmV3llSUf1xGdoc7Unffk1soKIboo/1+MJCS9Ovb2yoUKJewLLoANM332yo5uCiXLbgpHIgDr+NLaiyT5TfSFZ/uDkcDKqpErxSSRZWfS6bjkaVUDX8ul6xfHQ2GlWV5xo+L+ZL40/Y6bvRqKo81/HRs3mbLv0yGlWUnDr+4s1Ty/Sba3o3Gr01pjvxL647C070WOnbwcAoo5lxYxKFdaEN4vDNwCgNybMaPw9/qsPK5WowYtp0T67r+jp8jaVT03RFpR2E0U1dP4dvsDT/v5+NcipdLxMx6s+dS1hPVFjpnznVQFOfo7huKA1WLgyrECoj2ASUGmslDJrEqj98G6xybq2FYaDS0eSmGSjVSFwJw0ClWEnNo0/CKunWaKAMYXbdawxqpfJS8ck7hntfFWYU2WnYIFSxJuYdwz2VLO8Tin+T3bAuD/b91v0QLOR7PH9eT5dgsnB2tMMafhtssW62zoom5017amV8ebbt5dPRlmqn7wk7rq9LMGL1Xh7Jyb6P4eS0ycEnW/D5YF9vtlh3ySql2ojeDuvkYbpVdtFbszahcqxZfyim1RprvGgnpfaWJ9fBnzLV+LZtqNwOP3yVoAbfm5cphf0Yy64C/fxLbqHsqn+8cFUvfC+56kfbPBuTQ+iHqwohfO/BAFxb+I8QwL/bptnZ7T6EnozAlYmJ5UsAc9tD/eVLsueJ9X2vVv74SlAsb4ZgT0j38b8eUe3SfXzbNopg0x2VP3IlqLs3VXBlu0HoF9W25ngk7Stp2CTWuPoEfYN26yXV315S/fCSarGlahtEto7K2rbi7ldeHXpJFf7lJdX3jsrWtuXZq+q8p/Kpk+moHGxH5VPfnlON/Zvj5Hb7fTz2j6p3OF2B+TRL3djh9F/ffNVZZ5111llnnXXWWWedddaZyv4Dz9otpYbxNjEAAAAASUVORK5CYII=;" parent="1" vertex="1">
          <mxGeometry x="1340" y="338" width="23.73" height="54" as="geometry" />
        </mxCell>
        <mxCell id="09ozyw0w6ckLJWenfvnc-472" style="edgeStyle=orthogonalEdgeStyle;rounded=0;orthogonalLoop=1;jettySize=auto;html=1;entryX=1;entryY=0.5;entryDx=0;entryDy=0;" parent="1" source="09ozyw0w6ckLJWenfvnc-473" target="09ozyw0w6ckLJWenfvnc-428" edge="1">
          <mxGeometry relative="1" as="geometry">
            <mxPoint x="1080" y="550" as="targetPoint" />
            <Array as="points">
              <mxPoint x="1290" y="555" />
              <mxPoint x="1290" y="555" />
            </Array>
          </mxGeometry>
        </mxCell>
        <mxCell id="09ozyw0w6ckLJWenfvnc-473" value="DB" style="shape=cylinder3;whiteSpace=wrap;html=1;boundedLbl=1;backgroundOutline=1;size=15;fillColor=#d5e8d4;strokeColor=#82b366;" parent="1" vertex="1">
          <mxGeometry x="1370" y="515" width="60" height="80" as="geometry" />
        </mxCell>
        <mxCell id="09ozyw0w6ckLJWenfvnc-474" value="" style="shape=image;verticalLabelPosition=bottom;labelBackgroundColor=default;verticalAlign=top;aspect=fixed;imageAspect=0;image=data:image/png,iVBORw0KGgoAAAANSUhEUgAAAJUAAAFTCAMAAAAHur5gAAAA21BMVEX39/dYqlBJnUqmo4X//P/7+fv8+vxEm0VInUlOoUxIpD5SqElDm0RVqU3//f9OpkWqo4ignXw2ljc8mD1Upk5GpDzz9fPa6Nk0ljWMwIeUxJDv8+/g6uC617iGvoHq8Ol2sXZhrlmeyZqGuYZqrGuszazI3Mirz6jF3cO00bXM3sx7uXVgp2FosWFXo1ifxqBus2h+tX+XpXuGoXBqqVzZ2M7JyLg2nC+Sv5O01LGWwZeXxpNbnlVnnlxzn2R4qGWJoHKdpH5yqGK3tJ3n5N+xr5bf3tbAvqvPzsGZ+iOoAAAKzUlEQVR4nO2di3bbNgyGbVqU1FhKbGu13Tqpk65N0jTLekvXy5a2a3d5/yea7PhCSiRFApDEcyY8wXcA8Ad47/U666yzzmqz5XHbBArjx4+DthnKxme/tY2gMH7+24uwbYiS8Y9HN/6FMPg8nFzxtimKFpyl0TPfnMWPD/oP5jPPnJUHsP8geu2Xs/jyoN9/wObHXjkreJmuqBKvnBV8zF3V/4l55Sw+W0GtqKLTw7ZhtsaXw3RDxbwZhnx6toZaU0XXfmQWX/wy7N9bTsUmXlTDYHaU9gUqlkzbRsqhTh72+zJV++oQPD3oF6jY5LzlGIZPjvolqpi1Ogx575UEtaFiyc8tipYw+DYWb7Amz1tLLb48S2Wora9yLT1vCYsv0yJUXp43Fk9mrWT8tsqoqfIgHreAxY8VUCJVnDWPpfSURMXipOmmRpVTRSoWJctGsfiir4SSqVgUNYm161wqqFgULxrEejVUQxWpWMSmTWEFL3VQ67ZPxrppCCt4dKSDKlOx5LoZqIsDLZSCiiXPGpCt4PKhHkpFxbLT2kviZorlQsWyn2vG4gulpJup2OTXerHCX4xQGio2f1Enlmn4majY/Kq+lL9fTIBQxZPaKjWfmYafkSqvPXWp6VRTkm2ocjWtJ4aGQrM3LVWuD3XMe6qTykxVy7zHIqkqqOoYiFzXUtlTsYS62woeVyiVDVVEnPH83Cp+FVQs+0Ca8VOr8FVS5VNqQm8FTyxEwYYqzujmF/zSRhRsqEhXTW09VU3FMqquJnhESEW18s2vLMefHVXEKKB6oZ1+2lLl8kAQw+DCTj+tqfLKg47heoeNliqO8a564hA/OyqWYGPIr5xctVuurYghchxWTWpAvmLRDarwhCcuqW5NhdVSe/28N7sI5o0poh4GTx1dZU2F2XJduKW6AxWbnEOdFTx2DWBpsU9rMQMmPF86FEBXKpYBpzwuvYI7VZwtQK46dneVAxVLQMtaEFe5UIEOZIBc5UQFUQeQq5yoAOXQsYMBUUXPXJ0VPIW4yo2KOZ+4m4Jc5UjlOg8LnfpiKJVr3eFubRWUys1Z/BLmKlcqt8wKXjXjKydnVeyLEFK5OAumoCAqB80CygKEyr4ahh+BuQ6himxbh8BlZQFLZTuxgOc6iCr51apXBrTrGCqW2EUQnFUwqszm0CRY16FUVkrquAqDp2ITi+7PfWqKpbKYV3DXBQ88VTypPPe6PqjeLJVFvqMCaNhMNVllvuMCCKSqLIa4AEKpqlZK4e0ChopFRl+hJBRBlRmnFfB+D0dlPn0e4lwFpoozg2RhmhgUFcsu9SEML3ABhFNFhrNj4BkXmooZqs4CsmZFQ5W90IUQqwsYKn0Iw8/ItEJQsbk2rRz3kkiptEIKW98jotL1fvi0wlDFidpXIWzVkYhKtxCCVisclWa6iuxisFSR8hI3uggiqdQrDoilGBoq5aQC21uhqZRNVlB9HrReqjhR+Iog2XFUqqk9v8KnFZIqe15yFidIdiSVom8IEYtpRFRxVooggbJjqRSJhZ3eUFCVEgu4TUlLVUoskiGIpSopFskQxFKx4k0GguaKgKo4WUUuEVFRFXosxDYJIVWpeadIKzRVYS2SRhjQVLG8fcJnXviKzZcSFX7WRUIl1xzoAQZqKlkaaOSKgOpClAbUnhIhVfJBoqLoYwio5PocnFFAEVDJU1WSZMdTxZEYQdymEh0VE5e4iaSdgEqc1lOsMawNTyXIKE0nSkGVCatYRAWHgkoQd+RmJSWVsDBDsUpERCVMvoiKMwGVuA5JVJwpqD55SSVsQZMsfdBQCfMJitVHIqrXPlKJrUxH1VH9f6jI9Mr6SpUVFZW246le10CFhZJUlKxnQPtKrDg0q6IkVMLkmawXhR03FKmE/oqf+0IlrowSLapRUAl9++o9al+ohAUsohk9AZV4MIUT6RWaSlqCpFlup6AS90xotiYoqMTrqlTlGUsl73pRlRw0lbTWR7X8gaWS10WpFrCwVIVz0kSChaUq7DyHJFB4KnnbkkgasFSFswNE3SiaSr5dT9RhoZVB3uElGoRIqtLvHtwHKnlzqUe1v4SkKh2io0l3JFXp+A5NzUFSzYun3Gm2cnBUcfnIaEAAhaRSnJDG3PwkolKcGCXRURyV6hAkRWIhqYpMPZoZBYpK+W8ThWKhqJRnySm2LlFUmfrcPZ4Ks1IUZyomigMgGCrNd2AE2oCAUh1DXht+SoHxle42Nr55R1BpH+rChxDhKv2V2Sn2UhyCSn83FT0K4VAaXViHENv6wamMF2ZbozLdTA2QVwjhVKp+YRdC5LQQDGW+8Yy82QimMt8OR0oWFEp3e5Am36FUVa8OoPIdfIKu6kUS2EN9SCr13UHJWYgSDX4JofLlD9cXdAmojE8ObJ0FF4eaXthYO8v+ZXQiKqunueATQ+DLLVb/98KVFDbxsnxM0OkdcjRVfGP34hvYWSAqqwewMM4CUZkfkxGdBRyGoLfCNNNAhQE1CzLxsnxXbe0smMADqBxcBa2G9boK2jrU7Crg4q0zVGw9ADc2BWiWu6tcfziGnHl3haru9krmrg7Oxdn57WHrv5YQVKY3k/TOck14Vyrgj+yOIXSkyj6BXpZ3LYduZTB2ElDB7P82AlBNLqGfYbiJVs1Pku8sdIqhC1WM+gnDJYYuroJ+orAx9UfASvvdvpOJrlE/jrn8u/SHNRX690b730zO7qypkPHrOXyS886aym5eajTbrd/03V1kGb+M4NO/0PjN7Z7qy1tLKppf7ILPNqmV3llSUf1xGdoc7Unffk1soKIboo/1+MJCS9Ovb2yoUKJewLLoANM332yo5uCiXLbgpHIgDr+NLaiyT5TfSFZ/uDkcDKqpErxSSRZWfS6bjkaVUDX8ul6xfHQ2GlWV5xo+L+ZL40/Y6bvRqKo81/HRs3mbLv0yGlWUnDr+4s1Ty/Sba3o3Gr01pjvxL647C070WOnbwcAoo5lxYxKFdaEN4vDNwCgNybMaPw9/qsPK5WowYtp0T67r+jp8jaVT03RFpR2E0U1dP4dvsDT/v5+NcipdLxMx6s+dS1hPVFjpnznVQFOfo7huKA1WLgyrECoj2ASUGmslDJrEqj98G6xybq2FYaDS0eSmGSjVSFwJw0ClWEnNo0/CKunWaKAMYXbdawxqpfJS8ck7hntfFWYU2WnYIFSxJuYdwz2VLO8Tin+T3bAuD/b91v0QLOR7PH9eT5dgsnB2tMMafhtssW62zoom5017amV8ebbt5dPRlmqn7wk7rq9LMGL1Xh7Jyb6P4eS0ycEnW/D5YF9vtlh3ySql2ojeDuvkYbpVdtFbszahcqxZfyim1RprvGgnpfaWJ9fBnzLV+LZtqNwOP3yVoAbfm5cphf0Yy64C/fxLbqHsqn+8cFUvfC+56kfbPBuTQ+iHqwohfO/BAFxb+I8QwL/bptnZ7T6EnozAlYmJ5UsAc9tD/eVLsueJ9X2vVv74SlAsb4ZgT0j38b8eUe3SfXzbNopg0x2VP3IlqLs3VXBlu0HoF9W25ngk7Stp2CTWuPoEfYN26yXV315S/fCSarGlahtEto7K2rbi7ldeHXpJFf7lJdX3jsrWtuXZq+q8p/Kpk+moHGxH5VPfnlON/Zvj5Hb7fTz2j6p3OF2B+TRL3djh9F/ffNVZZ5111llnnXXWWWedddaZyv4Dz9otpYbxNjEAAAAASUVORK5CYII=;" parent="1" vertex="1">
          <mxGeometry x="1340" y="480" width="23.73" height="54" as="geometry" />
        </mxCell>
        <mxCell id="09ozyw0w6ckLJWenfvnc-475" style="edgeStyle=orthogonalEdgeStyle;rounded=0;orthogonalLoop=1;jettySize=auto;html=1;entryX=1;entryY=0.5;entryDx=0;entryDy=0;" parent="1" source="09ozyw0w6ckLJWenfvnc-476" target="09ozyw0w6ckLJWenfvnc-429" edge="1">
          <mxGeometry relative="1" as="geometry">
            <mxPoint x="1250" y="690" as="targetPoint" />
            <Array as="points">
              <mxPoint x="1394" y="685" />
            </Array>
          </mxGeometry>
        </mxCell>
        <mxCell id="09ozyw0w6ckLJWenfvnc-476" value="DB" style="shape=cylinder3;whiteSpace=wrap;html=1;boundedLbl=1;backgroundOutline=1;size=15;fillColor=#d5e8d4;strokeColor=#82b366;" parent="1" vertex="1">
          <mxGeometry x="1370" y="645" width="60" height="80" as="geometry" />
        </mxCell>
        <mxCell id="09ozyw0w6ckLJWenfvnc-477" value="" style="shape=image;verticalLabelPosition=bottom;labelBackgroundColor=default;verticalAlign=top;aspect=fixed;imageAspect=0;image=data:image/png,iVBORw0KGgoAAAANSUhEUgAAAJUAAAFTCAMAAAAHur5gAAAA21BMVEX39/dYqlBJnUqmo4X//P/7+fv8+vxEm0VInUlOoUxIpD5SqElDm0RVqU3//f9OpkWqo4ignXw2ljc8mD1Upk5GpDzz9fPa6Nk0ljWMwIeUxJDv8+/g6uC617iGvoHq8Ol2sXZhrlmeyZqGuYZqrGuszazI3Mirz6jF3cO00bXM3sx7uXVgp2FosWFXo1ifxqBus2h+tX+XpXuGoXBqqVzZ2M7JyLg2nC+Sv5O01LGWwZeXxpNbnlVnnlxzn2R4qGWJoHKdpH5yqGK3tJ3n5N+xr5bf3tbAvqvPzsGZ+iOoAAAKzUlEQVR4nO2di3bbNgyGbVqU1FhKbGu13Tqpk65N0jTLekvXy5a2a3d5/yea7PhCSiRFApDEcyY8wXcA8Ad47/U666yzzmqz5XHbBArjx4+DthnKxme/tY2gMH7+24uwbYiS8Y9HN/6FMPg8nFzxtimKFpyl0TPfnMWPD/oP5jPPnJUHsP8geu2Xs/jyoN9/wObHXjkreJmuqBKvnBV8zF3V/4l55Sw+W0GtqKLTw7ZhtsaXw3RDxbwZhnx6toZaU0XXfmQWX/wy7N9bTsUmXlTDYHaU9gUqlkzbRsqhTh72+zJV++oQPD3oF6jY5LzlGIZPjvolqpi1Ogx575UEtaFiyc8tipYw+DYWb7Amz1tLLb48S2Wora9yLT1vCYsv0yJUXp43Fk9mrWT8tsqoqfIgHreAxY8VUCJVnDWPpfSURMXipOmmRpVTRSoWJctGsfiir4SSqVgUNYm161wqqFgULxrEejVUQxWpWMSmTWEFL3VQ67ZPxrppCCt4dKSDKlOx5LoZqIsDLZSCiiXPGpCt4PKhHkpFxbLT2kviZorlQsWyn2vG4gulpJup2OTXerHCX4xQGio2f1Enlmn4majY/Kq+lL9fTIBQxZPaKjWfmYafkSqvPXWp6VRTkm2ocjWtJ4aGQrM3LVWuD3XMe6qTykxVy7zHIqkqqOoYiFzXUtlTsYS62woeVyiVDVVEnPH83Cp+FVQs+0Ca8VOr8FVS5VNqQm8FTyxEwYYqzujmF/zSRhRsqEhXTW09VU3FMqquJnhESEW18s2vLMefHVXEKKB6oZ1+2lLl8kAQw+DCTj+tqfLKg47heoeNliqO8a564hA/OyqWYGPIr5xctVuurYghchxWTWpAvmLRDarwhCcuqW5NhdVSe/28N7sI5o0poh4GTx1dZU2F2XJduKW6AxWbnEOdFTx2DWBpsU9rMQMmPF86FEBXKpYBpzwuvYI7VZwtQK46dneVAxVLQMtaEFe5UIEOZIBc5UQFUQeQq5yoAOXQsYMBUUXPXJ0VPIW4yo2KOZ+4m4Jc5UjlOg8LnfpiKJVr3eFubRWUys1Z/BLmKlcqt8wKXjXjKydnVeyLEFK5OAumoCAqB80CygKEyr4ahh+BuQ6himxbh8BlZQFLZTuxgOc6iCr51apXBrTrGCqW2EUQnFUwqszm0CRY16FUVkrquAqDp2ITi+7PfWqKpbKYV3DXBQ88VTypPPe6PqjeLJVFvqMCaNhMNVllvuMCCKSqLIa4AEKpqlZK4e0ChopFRl+hJBRBlRmnFfB+D0dlPn0e4lwFpoozg2RhmhgUFcsu9SEML3ABhFNFhrNj4BkXmooZqs4CsmZFQ5W90IUQqwsYKn0Iw8/ItEJQsbk2rRz3kkiptEIKW98jotL1fvi0wlDFidpXIWzVkYhKtxCCVisclWa6iuxisFSR8hI3uggiqdQrDoilGBoq5aQC21uhqZRNVlB9HrReqjhR+Iog2XFUqqk9v8KnFZIqe15yFidIdiSVom8IEYtpRFRxVooggbJjqRSJhZ3eUFCVEgu4TUlLVUoskiGIpSopFskQxFKx4k0GguaKgKo4WUUuEVFRFXosxDYJIVWpeadIKzRVYS2SRhjQVLG8fcJnXviKzZcSFX7WRUIl1xzoAQZqKlkaaOSKgOpClAbUnhIhVfJBoqLoYwio5PocnFFAEVDJU1WSZMdTxZEYQdymEh0VE5e4iaSdgEqc1lOsMawNTyXIKE0nSkGVCatYRAWHgkoQd+RmJSWVsDBDsUpERCVMvoiKMwGVuA5JVJwpqD55SSVsQZMsfdBQCfMJitVHIqrXPlKJrUxH1VH9f6jI9Mr6SpUVFZW246le10CFhZJUlKxnQPtKrDg0q6IkVMLkmawXhR03FKmE/oqf+0IlrowSLapRUAl9++o9al+ohAUsohk9AZV4MIUT6RWaSlqCpFlup6AS90xotiYoqMTrqlTlGUsl73pRlRw0lbTWR7X8gaWS10WpFrCwVIVz0kSChaUq7DyHJFB4KnnbkkgasFSFswNE3SiaSr5dT9RhoZVB3uElGoRIqtLvHtwHKnlzqUe1v4SkKh2io0l3JFXp+A5NzUFSzYun3Gm2cnBUcfnIaEAAhaRSnJDG3PwkolKcGCXRURyV6hAkRWIhqYpMPZoZBYpK+W8ThWKhqJRnySm2LlFUmfrcPZ4Ks1IUZyomigMgGCrNd2AE2oCAUh1DXht+SoHxle42Nr55R1BpH+rChxDhKv2V2Sn2UhyCSn83FT0K4VAaXViHENv6wamMF2ZbozLdTA2QVwjhVKp+YRdC5LQQDGW+8Yy82QimMt8OR0oWFEp3e5Am36FUVa8OoPIdfIKu6kUS2EN9SCr13UHJWYgSDX4JofLlD9cXdAmojE8ObJ0FF4eaXthYO8v+ZXQiKqunueATQ+DLLVb/98KVFDbxsnxM0OkdcjRVfGP34hvYWSAqqwewMM4CUZkfkxGdBRyGoLfCNNNAhQE1CzLxsnxXbe0smMADqBxcBa2G9boK2jrU7Crg4q0zVGw9ADc2BWiWu6tcfziGnHl3haru9krmrg7Oxdn57WHrv5YQVKY3k/TOck14Vyrgj+yOIXSkyj6BXpZ3LYduZTB2ElDB7P82AlBNLqGfYbiJVs1Pku8sdIqhC1WM+gnDJYYuroJ+orAx9UfASvvdvpOJrlE/jrn8u/SHNRX690b730zO7qypkPHrOXyS886aym5eajTbrd/03V1kGb+M4NO/0PjN7Z7qy1tLKppf7ILPNqmV3llSUf1xGdoc7Unffk1soKIboo/1+MJCS9Ovb2yoUKJewLLoANM332yo5uCiXLbgpHIgDr+NLaiyT5TfSFZ/uDkcDKqpErxSSRZWfS6bjkaVUDX8ul6xfHQ2GlWV5xo+L+ZL40/Y6bvRqKo81/HRs3mbLv0yGlWUnDr+4s1Ty/Sba3o3Gr01pjvxL647C070WOnbwcAoo5lxYxKFdaEN4vDNwCgNybMaPw9/qsPK5WowYtp0T67r+jp8jaVT03RFpR2E0U1dP4dvsDT/v5+NcipdLxMx6s+dS1hPVFjpnznVQFOfo7huKA1WLgyrECoj2ASUGmslDJrEqj98G6xybq2FYaDS0eSmGSjVSFwJw0ClWEnNo0/CKunWaKAMYXbdawxqpfJS8ck7hntfFWYU2WnYIFSxJuYdwz2VLO8Tin+T3bAuD/b91v0QLOR7PH9eT5dgsnB2tMMafhtssW62zoom5017amV8ebbt5dPRlmqn7wk7rq9LMGL1Xh7Jyb6P4eS0ycEnW/D5YF9vtlh3ySql2ojeDuvkYbpVdtFbszahcqxZfyim1RprvGgnpfaWJ9fBnzLV+LZtqNwOP3yVoAbfm5cphf0Yy64C/fxLbqHsqn+8cFUvfC+56kfbPBuTQ+iHqwohfO/BAFxb+I8QwL/bptnZ7T6EnozAlYmJ5UsAc9tD/eVLsueJ9X2vVv74SlAsb4ZgT0j38b8eUe3SfXzbNopg0x2VP3IlqLs3VXBlu0HoF9W25ngk7Stp2CTWuPoEfYN26yXV315S/fCSarGlahtEto7K2rbi7ldeHXpJFf7lJdX3jsrWtuXZq+q8p/Kpk+moHGxH5VPfnlON/Zvj5Hb7fTz2j6p3OF2B+TRL3djh9F/ffNVZZ5111llnnXXWWWedddaZyv4Dz9otpYbxNjEAAAAASUVORK5CYII=;" parent="1" vertex="1">
          <mxGeometry x="1340" y="620" width="23.73" height="54" as="geometry" />
        </mxCell>
        <mxCell id="09ozyw0w6ckLJWenfvnc-487" style="edgeStyle=orthogonalEdgeStyle;rounded=0;orthogonalLoop=1;jettySize=auto;html=1;entryX=0;entryY=0.5;entryDx=0;entryDy=0;" parent="1" source="09ozyw0w6ckLJWenfvnc-483" target="09ozyw0w6ckLJWenfvnc-433" edge="1">
          <mxGeometry relative="1" as="geometry" />
        </mxCell>
        <mxCell id="09ozyw0w6ckLJWenfvnc-483" value="IoT" style="rounded=0;whiteSpace=wrap;html=1;fillColor=#f5f5f5;fontColor=#333333;strokeColor=#666666;" parent="1" vertex="1">
          <mxGeometry x="430" y="345" width="90" height="40" as="geometry" />
        </mxCell>
        <mxCell id="09ozyw0w6ckLJWenfvnc-488" style="edgeStyle=orthogonalEdgeStyle;rounded=0;orthogonalLoop=1;jettySize=auto;html=1;entryX=0;entryY=0.5;entryDx=0;entryDy=0;" parent="1" source="09ozyw0w6ckLJWenfvnc-484" target="09ozyw0w6ckLJWenfvnc-433" edge="1">
          <mxGeometry relative="1" as="geometry" />
        </mxCell>
        <mxCell id="09ozyw0w6ckLJWenfvnc-484" value="Mobile" style="rounded=0;whiteSpace=wrap;html=1;fillColor=#f5f5f5;fontColor=#333333;strokeColor=#666666;" parent="1" vertex="1">
          <mxGeometry x="430" y="405" width="90" height="40" as="geometry" />
        </mxCell>
      </root>
    </mxGraphModel>
  </diagram>
</mxfile>
